<?xml version="1.0" encoding="utf-8"?>
<!-- Generator: Adobe Illustrator 21.0.0, SVG Export Plug-In . SVG Version: 6.00 Build 0)  -->
<svg version="1.1" id="Capa_1" xmlns="http://www.w3.org/2000/svg" xmlns:xlink="http://www.w3.org/1999/xlink" x="0px" y="0px"
	 viewBox="0 0 549.2 736.1" style="enable-background:new 0 0 549.2 736.1;" xml:space="preserve">
<style type="text/css">
	.st0{fill:#D5E3EF;}
	.st1{fill:#B0C4D9;}
	.st2{fill:#F79548;}
	.st3{fill:#FCBB76;}
	.st4{fill:#99B4CD;}
	.st5{fill:#6C9ABB;}
	.st6{fill:#70B7E5;}
	.st7{fill:#033655;}
	.st8{fill:#4C9CD6;}
	.st9{fill:#4C89A8;}
	.st10{fill:#ECF0F9;}
</style>
<path class="st0" d="M378.1,308.6L238.6,448.4L124.5,334.5c-54.8-54.6-90.9-124.4-103.8-200l-3.5-20.9c0-1.2,0-2.3,0-3.5l0,0
	c0-11.6,9.3-21,20.9-21l0,0c1.2,0,2.3,0,3.5,0l22.1,2.3c75.7,12.7,145.5,48.7,199.1,102.1L378.1,308.6z"/>
<path class="st1" d="M170.8,183.2l166.6,166.2l40.7-40.8L263.9,194.7c-54.8-54.6-123.5-89.4-199.1-102.1l-22.1-4.6
	c-1.2,0-2.3,0-3.5,0c-5.8,0-10.5,2.3-14,5.8C78.8,111.1,128.9,141.3,170.8,183.2z"/>
<g>
	<path class="st2" d="M488.6,302.6c-7,7-7,18.6,0,25.6c9.3,9.3,38.4,15.1,39.6,16.2c1.2,0,1.2,0,1.2,0s1.2-1.2,0-1.2
		c0-1.2-5.9-29.1-16.3-39.5C506.1,294.4,495.6,294.4,488.6,302.6z"/>
	<path class="st2" d="M233,558.9c-7,7-7,18.6,0,25.6c9.3,9.3,37.3,15.1,38.4,15.1c1.2,0,1.2,0,1.2,0s1.2-1.2,0-1.2
		c0-1.2-5.9-29.1-16.3-39.5C250.4,550.8,239.9,550.8,233,558.9z"/>
	<path class="st2" d="M406.2,476.1c-20.9,21-20.9,55.9,0.1,76.8c29.1,29.1,114.1,46.4,117.6,47.6c2.3,0,3.5,0,4.7-1.2
		c1.2-2.3,1.2-4.7,1.2-7c-1.2-3.5-17.6-88.4-47.9-117.5C460.9,453.9,427.2,454,406.2,476.1z"/>
</g>
<path class="st3" d="M407.4,479.6c-10.5,10.5-10.4,27.9,0.1,38.4c15.1,15.1,57,23.2,58.2,23.2c1.2,0,2.3,0,2.3-1.2
	c1.2-1.2,1.2-1.2,1.2-2.3c0-2.3-9.4-44.2-23.4-58.2C435.3,469.1,417.9,469.1,407.4,479.6z"/>
<polygon class="st4" points="436.3,296.8 401.4,331.8 331.5,262.1 401.3,262 "/>
<path class="st5" d="M393.2,300.4l-22.1-22.1c-10.5-10.5-24.5-16.3-39.6-16.2l0,0l69.9,69.7l34.9-35l-11.7-11.6l-15.1,15.1
	C404.9,305,397.9,305,393.2,300.4z"/>
<path class="st0" d="M506.1,273.5l-46.5,46.6l-83.9-83.7c-5.8-5.8-9.3-14-9.3-23.3l0,0c0-18.6,15.1-32.6,32.5-32.6l0,0
	c9.3,0,17.5,3.5,23.3,9.3L506.1,273.5z"/>
<path class="st1" d="M398.9,189.8l83.9,83.7l-34.9,35l11.7,11.6l46.5-46.6l-83.9-83.7c-5.8-5.8-14-9.3-23.3-9.3
	c-4.7,0-8.1,1.2-11.6,2.3C391.9,184,395.4,186.4,398.9,189.8z"/>
<path class="st4" d="M343.5,506.4L343.5,506.4c-8.2-8.1-14-17.4-16.3-26.7l-7-19.8l69.7-69.9l19.8,7c10.5,3.5,19.8,9.3,26.8,16.3
	l0,0L343.5,506.4z"/>
<path class="st5" d="M320.1,459.9l5.8,17.4l38.3-38.5c9.3-9.3,22.1-11.7,33.7-8.2l0,0c4.7,1.2,9.3,3.5,14,7l24.4-24.5
	c-8.2-8.1-17.5-13.9-26.8-16.3l-19.8-7L320.1,459.9z"/>
<polygon class="st4" points="227.1,506.6 262,471.6 192,401.9 192.1,471.7 "/>
<path class="st5" d="M235.2,475.2c-4.6,4.7-11.6,4.7-16.3,0l-26.8-26.7l0,23.3l35,34.9l34.9-35l0,0c-7-7-16.3-7-23.3,0L235.2,475.2z
	"/>
<path class="st0" d="M203.9,576.4l46.5-46.6l-83.9-83.7c-5.8-5.8-14-9.3-23.3-9.3l0,0c-17.5,0-32.6,15.2-32.5,32.6l0,0
	c0,9.3,3.5,17.5,9.3,23.3L203.9,576.4z"/>
<ellipse transform="matrix(1 -1.330261e-03 1.330261e-03 1 -0.3642 0.271)" class="st6" cx="203.5" cy="273.9" rx="46.5" ry="46.5"/>
<path class="st7" d="M261.7,273.8c0,32.6-25.5,58.2-58.1,58.3c-32.6,0-58.2-25.5-58.3-58.1c0-32.6,25.5-58.2,58.1-58.3
	C236,215.7,261.6,241.2,261.7,273.8z M168.6,273.9c0,19.8,15.2,34.9,35,34.9c19.8,0,34.9-15.2,34.9-35c0-19.8-15.2-34.9-35-34.9
	C183.7,239,168.6,254.1,168.6,273.9z"/>
<path class="st8" d="M233.8,292.5c-5.8,3.5-11.6,4.7-18.6,4.7c-19.8,0-34.9-15.1-35-34.9c0-7,2.3-12.8,4.6-18.6
	c-9.3,7-16.3,17.5-16.3,30.3c0,19.8,15.2,34.9,35,34.9C216.4,308.8,226.8,301.8,233.8,292.5z"/>
<path class="st9" d="M378.1,308.6l38.5,38.3c4.7,4.6,4.7,11.6,0,16.3L293.4,486.7c-4.6,4.7-11.6,4.7-16.3,0l-38.5-38.3L378.1,308.6z
	"/>
<path class="st7" d="M350.3,394.7l-73.2,73.4c-4.6,4.7-4.6,12.8,0,18.6l0,0c4.7,4.6,11.6,4.6,16.3,0l123.2-123.5
	c4.6-4.7,4.6-11.6,0-16.3l-38.5-38.3l-40.7,40.8l12.8,12.8C359.6,371.4,359.6,385.4,350.3,394.7z"/>
<rect x="432.6" y="254.5" transform="matrix(0.7062 -0.708 0.708 0.7062 -60.6606 411.735)" class="st9" width="66.3" height="48.9"/>
<path class="st7" d="M459.5,250.3l16.3,16.3c7,7,7,16.3,0,23.3l-23.2,23.3l7,7l46.5-46.6l-35-34.9L459.5,250.3z"/>
<g>
	<path class="st10" d="M232.8,401.8c0,1.2,0,3.5-1.2,4.7c-2.3,2.3-5.8,2.3-8.1,0l-58.3-58.1c-2.3-2.3-2.3-5.8,0-8.1
		c2.3-2.3,5.8-2.3,8.1,0l58.3,58.1C232.8,398.4,232.8,400.7,232.8,401.8z"/>
	<path class="st10" d="M151.2,320.5c0,1.2,0,3.5-1.2,4.7c-2.3,2.3-5.8,2.3-8.1,0l-23.3-23.2c-2.3-2.3-2.3-5.8,0-8.1
		c2.3-2.3,5.8-2.3,8.1,0L150,317C151.2,317,151.2,319.3,151.2,320.5z"/>
</g>
<path class="st7" d="M17.1,108.9c0,1.2,0,2.3,0,3.5l3.5,22.1c5.9,36.1,17.5,69.8,33.9,102.4c0,0,20.9-21,55.8-55.9
	s55.8-55.9,55.8-55.9c-32.6-16.2-66.4-26.7-102.4-33.6l-20.9-3.5c-1.2,0-2.3,0-3.5,0C26.4,87.9,17.1,97.3,17.1,108.9z"/>
<g>
	<path class="st9" d="M64.9,192.6c0,2.3-1.2,4.7-3.5,5.8c-3.5,1.2-5.8,0-7-3.5c-9.3-23.3-15.2-46.5-19.9-71c0-3.5,1.2-5.8,4.6-7
		c3.5,0,5.8,1.2,7,4.6c3.5,23.3,10.5,46.5,18.7,68.6C64.9,191.5,64.9,191.5,64.9,192.6z"/>
	<path class="st9" d="M146.5,274l-1.2,0c0,32.6,25.7,58.1,58.3,58.1l0-1.2c0-5.8-3.5-10.5-9.3-11.6c-8.1-1.2-15.1-5.8-21-10.4
		c-7-7-12.8-15.1-15.2-25.6C157,277.4,152.3,274,146.5,274z"/>
</g>
<path class="st9" d="M260.5,273.8l1.2,0c0-32.6-25.7-58.1-58.3-58.1l0,1.2c0,5.8,3.5,10.5,9.3,11.6c8.1,1.2,15.1,5.8,21,10.4
	c7,7,12.8,15.1,15.2,25.6C250,270.3,254.7,273.8,260.5,273.8z"/>
<path class="st10" d="M418.7,250.3c0,1.2,0,3.5-1.2,4.7c-2.3,2.3-5.8,2.3-8.1,0l-23.3-23.2c-2.3-2.3-2.3-5.8,0-8.1
	c2.3-2.3,5.8-2.3,8.1,0l23.3,23.2C418.7,246.8,418.7,249.2,418.7,250.3z"/>
<path class="st1" d="M143.2,446.2l83.9,83.7l-34.9,35l11.7,11.6l46.5-46.6l-83.9-83.7c-5.8-5.8-14-9.3-23.3-9.3
	c-4.7,0-8.1,1.2-11.6,2.3C136.2,440.4,139.7,442.7,143.2,446.2z"/>
<path class="st10" d="M163.1,506.7c0,1.2,0,3.5-1.2,4.7c-2.3,2.3-5.8,2.3-8.1,0l-23.3-23.2c-2.3-2.3-2.3-5.8,0-8.1
	c2.3-2.3,5.8-2.3,8.1,0l23.3,23.2C163.1,503.2,163.1,505.5,163.1,506.7z"/>
<rect x="176.9" y="510.9" transform="matrix(0.7062 -0.708 0.708 0.7062 -317.3046 306.0474)" class="st9" width="66.3" height="48.9"/>
<g>
	<path class="st7" d="M203.8,506.6l16.3,16.3c7,7,7,16.3,0,23.3l-23.2,23.3l7,7l46.5-46.6l-35-34.9L203.8,506.6z"/>
	<path class="st7" d="M137,154.1l29.1-29.1c-32.6-16.2-66.4-26.7-102.4-33.6l-20.9-3.5c-1.2,0-2.3,0-3.5,0c-5.8,0-10.5,2.3-14,5.8
		C64.8,106.5,103.2,127.4,137,154.1z"/>
</g>
</svg>
