<?xml version="1.0" encoding="utf-8"?>
<!-- Generator: Adobe Illustrator 21.0.0, SVG Export Plug-In . SVG Version: 6.00 Build 0)  -->
<svg version="1.1" id="Capa_1" xmlns="http://www.w3.org/2000/svg" xmlns:xlink="http://www.w3.org/1999/xlink" x="0px" y="0px"
	 viewBox="0 0 768.9 736.1" style="enable-background:new 0 0 768.9 736.1;" xml:space="preserve">
<style type="text/css">
	.st0{fill:#D5E3EF;}
	.st1{fill:#B0C4D9;}
	.st2{fill:#F79548;}
	.st3{fill:#FCBB76;}
	.st4{fill:#99B4CD;}
	.st5{fill:#6C9ABB;}
	.st6{fill:#70B7E5;}
	.st7{fill:#033655;}
	.st8{fill:#4C9CD6;}
	.st9{fill:#4C89A8;}
	.st10{fill:#ECF0F9;}
</style>
<path class="st0" d="M453.5,271.9l-76.6,182l-148.6-62.6c-71.3-30-131-81-171.4-146.2l-11.1-18c-0.5-1.1-0.9-2.1-1.3-3.2l0,0
	c-4.4-10.7,0.7-23,11.5-27.3l0,0c1.1-0.5,2.1-0.9,3.2-1.3l21.3-6.2c74.9-16.7,153.1-9.6,222.9,19.7L453.5,271.9z"/>
<path class="st1" d="M214.3,233.7L431.2,325l22.4-53.1l-148.7-62.6c-71.3-30-148.1-36.4-222.9-19.7l-22.2,4.1
	c-1.1,0.5-2.1,0.9-3.2,1.3c-5.4,2.2-8.9,6.1-10.8,10.6C101.9,201.5,159.7,210.6,214.3,233.7z"/>
<g>
	<path class="st2" d="M553.6,224.7c-3.9,9.1,0.5,19.9,9.6,23.7c12.1,5.1,41.3-0.5,42.8,0.1c1.1-0.5,1.1-0.5,1.1-0.5s0.7-1.6-0.5-1.1
		c-0.5-1.1-16.4-24.7-30-30.5C566.8,210.5,557,214.5,553.6,224.7z"/>
	<path class="st2" d="M413.3,558.4c-3.9,9.1,0.5,19.9,9.6,23.7c12.1,5.1,40.2,0,41.3-0.5c1.1-0.5,1.1-0.5,1.1-0.5s0.7-1.6-0.5-1.1
		c-0.5-1.1-16.4-24.7-30-30.5C426.4,544.3,416.6,548.3,413.3,558.4z"/>
	<path class="st2" d="M542.6,416.5c-11.5,27.3,1.7,59.7,29,71.1c37.9,16,123.2,0.1,126.9-0.2c2.1-0.9,3.2-1.3,3.9-2.9
		c0.2-2.6-0.7-4.8-1.5-6.9c-2.4-2.8-49.6-75.3-88.6-90.8C584.9,375.3,553.7,388.1,542.6,416.5z"/>
</g>
<path class="st3" d="M556.4,383.1c-2.9,14.6,6.7,29,21.3,31.9c20.9,4.2,60.3-12.2,61.3-12.8c1-0.7,1.9-1.3,1.3-2.3
	c0.3-1.7,0.3-1.7-0.3-2.6c-1.3-1.9-32.3-31.6-51.7-35.6C573.9,358.9,559.4,368.5,556.4,383.1z"/>
<polygon class="st4" points="503,239 483.8,284.6 392.9,246.3 457.5,220 "/>
<path class="st5" d="M464.4,258.6l-28.8-12.2c-13.7-5.8-28.8-5.9-42.8-0.1l0,0l91,38.3L503,239l-15.2-6.3l-8.3,19.7
	C477,258.4,470.5,261.1,464.4,258.6z"/>
<path class="st0" d="M558.9,191.2l-25.5,60.7l-109.2-46c-7.6-3.2-13.9-9.5-17.4-18.1l0,0c-7-17.2,1.7-35.9,17.8-42.4l0,0
	c8.6-3.5,17.5-3.3,25.1-0.2L558.9,191.2z"/>
<path class="st1" d="M428.1,154l109.2,46l-19.2,45.6l15.2,6.3l25.5-60.7l-109.2-46c-7.6-3.2-16.5-3.3-25.1,0.2
	c-4.4,1.8-7.1,4.2-9.9,6.5C419.4,151.2,423.6,152.1,428.1,154z"/>
<path class="st4" d="M495.9,468.1L495.9,468.1c-10.6-4.4-19.5-10.9-25.1-18.6l-13.9-15.7l38.3-91l21-1c11-0.7,21.8,1.2,31,5l0,0
	L495.9,468.1z"/>
<path class="st5" d="M456.7,433.9l11.9,13.9l21-50.1c5.1-12.1,16.1-19.2,28.1-20.3l0,0c4.8-0.7,9.9-0.3,15.6,1.2l13.4-31.9
	c-10.6-4.4-21.4-6.3-31-5l-21,1L456.7,433.9z"/>
<polygon class="st4" points="388.1,512.1 407.3,466.6 316.2,428.3 342.6,493 "/>
<path class="st5" d="M383.8,480c-2.5,6.1-9,8.7-15.1,6.1l-34.9-14.7l8.8,21.6l45.6,19.2l19.2-45.6l0,0c-9.1-3.9-17.7-0.4-21.6,8.8
	L383.8,480z"/>
<path class="st0" d="M392.9,585.5l25.5-60.7l-109.2-46c-7.6-3.2-16.5-3.3-25.1,0.2l0,0c-16.2,6.6-24.5,26.4-17.8,42.4l0,0
	c3.5,8.6,9.8,14.9,17.4,18.1L392.9,585.5z"/>
<ellipse transform="matrix(0.926 -0.3775 0.3775 0.926 -94.6823 127.8268)" class="st6" cx="278.7" cy="305.4" rx="46.5" ry="46.5"/>
<path class="st7" d="M332.6,283.4c12.3,30.2-1.7,63.5-31.9,75.9c-30.2,12.3-63.5-1.7-75.9-31.9c-12.3-30.2,1.7-63.5,31.9-75.9
	C286.9,239.3,320.2,253.3,332.6,283.4z M246.4,318.5c7.5,18.3,27.2,26.6,45.6,19.2s26.6-27.2,19.2-45.6
	c-7.5-18.3-27.2-26.6-45.6-19.2C247.2,280.5,238.9,300.2,246.4,318.5z"/>
<path class="st8" d="M313.8,311.2c-4.1,5.4-9,8.7-15.5,11.4c-18.3,7.5-38-0.9-45.6-19.2c-2.6-6.5-2.7-12.7-2.7-19
	c-6,10-8.5,22.3-3.7,34.2c7.5,18.3,27.2,26.6,45.6,19.2C303.8,332.9,310.8,322.5,313.8,311.2z"/>
<path class="st9" d="M453.5,271.9l50.1,21c6.1,2.5,8.7,9,6.1,15.1l-67.7,160.8c-2.5,6.1-9,8.7-15.1,6.1l-50.1-21L453.5,271.9z"/>
<path class="st7" d="M460.2,362.1L420,457.6c-2.5,6.1,0.6,13.6,7,17.2l0,0c6.1,2.5,12.5-0.1,15.1-6.1L509.7,308
	c2.5-6.1-0.1-12.5-6.1-15.1l-50.1-21L431.2,325l16.7,7C460,337,465.3,350,460.2,362.1z"/>
<rect x="490.4" y="187" transform="matrix(0.3879 -0.9217 0.9217 0.3879 125.6247 612.0234)" class="st9" width="66.3" height="48.9"/>
<path class="st7" d="M507,187.2l21.2,9c9.1,3.9,12.6,12.5,8.8,21.6l-12.7,30.3l9.1,3.9l25.5-60.7l-45.6-19.2L507,187.2z"/>
<g>
	<path class="st10" d="M354,412.9c0.5,1.1,1.3,3.2,0.7,4.8c-1.3,3-4.5,4.3-7.5,3l-75.9-31.9c-3-1.3-4.3-4.5-3-7.5
		c1.3-3,4.5-4.3,7.5-3l75.9,31.9C352.7,409.7,353.6,411.9,354,412.9z"/>
	<path class="st10" d="M247.8,368.3c0.5,1.1,1.3,3.2,0.7,4.8c-1.3,3-4.5,4.3-7.5,3l-30.3-12.7c-3-1.3-4.3-4.5-3-7.5
		c1.3-3,4.5-4.3,7.5-3l30.3,12.6C246.5,365,247.3,367.2,247.8,368.3z"/>
</g>
<path class="st7" d="M43.9,222.7c0.5,1.1,0.9,2.1,1.3,3.2l11.6,19.2c19.1,31.2,42.5,58.1,69.9,82.1c0,0,11.5-27.3,30.7-72.8
	s30.7-72.8,30.7-72.8c-36.3-2.7-71.6,0.2-107.5,7.4l-20.7,4.6c-1.1,0.5-2.1,0.9-3.2,1.3C44.6,199.7,39.5,211.9,43.9,222.7z"/>
<g>
	<path class="st9" d="M119.7,282.2c0.9,2.1,0.7,4.8-1.1,6.7c-2.8,2.4-5.4,2.2-7.8-0.6C93.4,270.2,79.3,251,65.7,230
		c-1.3-3.2-1.1-5.8,1.6-8.2c3.2-1.3,5.8-1.1,8.2,1.6c12,20.3,27.2,39.1,43.1,56.5C119.3,281.2,119.3,281.2,119.7,282.2z"/>
	<path class="st9" d="M225.9,327l-1.1,0.5c12.3,30.2,45.7,44.2,75.9,31.9l-0.5-1.1c-2.2-5.4-7.2-8.4-13-7.2
		c-8,1.9-16.2,0.3-23.4-1.7c-9.1-3.9-17.5-9.2-23.7-18C236.9,326.2,231.3,324.8,225.9,327z"/>
</g>
<path class="st9" d="M331.5,283.9l1.1-0.5c-12.3-30.2-45.7-44.2-75.9-31.9l0.5,1.1c2.2,5.4,7.2,8.4,13,7.2c8-1.9,16.2-0.3,23.4,1.7
	c9.1,3.9,17.5,9.2,23.7,18C320.4,284.6,326.1,286.1,331.5,283.9z"/>
<path class="st10" d="M469.2,202.6c0.5,1.1,1.3,3.2,0.7,4.8c-1.3,3-4.5,4.3-7.5,3L432,197.7c-3-1.3-4.3-4.5-3-7.5
	c1.3-3,4.5-4.3,7.5-3l30.3,12.7C467.9,199.3,468.8,201.5,469.2,202.6z"/>
<path class="st1" d="M287.7,487.7l109.2,46l-19.2,45.6l15.2,6.3l25.5-60.7l-109.2-46c-7.6-3.2-16.5-3.3-25.1,0.2
	c-4.4,1.8-7.1,4.2-9.9,6.5C279,485,283.1,485.8,287.7,487.7z"/>
<path class="st10" d="M328.9,536.3c0.5,1.1,1.3,3.2,0.7,4.8c-1.3,3-4.5,4.3-7.5,3l-30.3-12.7c-3-1.3-4.3-4.5-3-7.5
	c1.3-3,4.5-4.3,7.5-3l30.3,12.7C327.6,533.1,328.4,535.2,328.9,536.3z"/>
<rect x="350" y="520.8" transform="matrix(0.3879 -0.9217 0.9217 0.3879 -267.9776 686.9396)" class="st9" width="66.3" height="48.9"/>
<g>
	<path class="st7" d="M366.5,520.9l21.2,9c9.1,3.9,12.6,12.5,8.8,21.6l-12.7,30.3l9.1,3.9l25.5-60.7l-45.6-19.2L366.5,520.9z"/>
	<path class="st7" d="M172,219.4l16-37.9c-36.3-2.7-71.6,0.2-107.5,7.4l-20.7,4.6c-1.1,0.5-2.1,0.9-3.2,1.3
		c-5.4,2.2-8.9,6.1-10.8,10.6C87.2,202.5,130.6,207.4,172,219.4z"/>
</g>
</svg>
